HIERARCHY
ROOT Hips
{
	OFFSET 0.000000 0.000000 0.000000
	CHANNELS 6 Xposition Yposition Zposition Zrotation Yrotation Xrotation 
	JOINT LeftUpLeg_virtual
	{
		OFFSET 0.000000 0.000000 0.000000
		CHANNELS 3 Zrotation Yrotation Xrotation
		JOINT LeftUpLeg
		{
			OFFSET 8.479694 -4.795517 -0.379053
			CHANNELS 3 Zrotation Yrotation Xrotation
			JOINT LeftLeg
			{
				OFFSET 0.485052 -32.551468 0.112863
				CHANNELS 3 Zrotation Yrotation Xrotation
				JOINT LeftFoot
				{
					OFFSET 0.438033 -32.635670 -3.012641
					CHANNELS 3 Zrotation Yrotation Xrotation
					JOINT LeftToeBase
					{
						OFFSET 0.970169 -13.225353 11.864223
						CHANNELS 3 Zrotation Yrotation Xrotation
						End Site
						{
							OFFSET 0.000000 0.000000 0.000000
						}
					}
				}
			}
		}
	}
	JOINT RightUpLeg_virtual
	{
		OFFSET 0.000000 0.000000 0.000000
		CHANNELS 3 Zrotation Yrotation Xrotation
		JOINT RightUpLeg
		{
			OFFSET -8.479694 -4.795517 -0.379053
			CHANNELS 3 Zrotation Yrotation Xrotation
			JOINT RightLeg
			{
				OFFSET -0.484100 -32.551483 0.112903
				CHANNELS 3 Zrotation Yrotation Xrotation
				JOINT RightFoot
				{
					OFFSET -0.438985 -32.635651 -3.012681
					CHANNELS 3 Zrotation Yrotation Xrotation
					JOINT RightToeBase
					{
						OFFSET -0.970169 -13.225354 11.864223
						CHANNELS 3 Zrotation Yrotation Xrotation
						End Site
						{
							OFFSET 0.000000 0.000000 0.000000
						}
					}
				}
			}
		}
	}
	JOINT Spine_virtual
	{
		OFFSET 0.000000 0.000000 0.000000
		CHANNELS 3 Zrotation Yrotation Xrotation
		JOINT Spine
		{
			OFFSET 0.000000 7.722015 1.166203
			CHANNELS 3 Zrotation Yrotation Xrotation
			JOINT Spine1
			{
				OFFSET 0.000000 12.024086 0.248766
				CHANNELS 3 Zrotation Yrotation Xrotation
				JOINT Spine2
				{
					OFFSET -0.000000 11.503036 -0.491240
					CHANNELS 3 Zrotation Yrotation Xrotation
					JOINT Neck_virtual
					{
						OFFSET 0.000000 0.000000 0.000000
						CHANNELS 3 Zrotation Yrotation Xrotation
						JOINT Neck
						{
							OFFSET 0.000000 18.430687 -3.123054
							CHANNELS 3 Zrotation Yrotation Xrotation
							JOINT Head
							{
								OFFSET -0.000000 9.051071 1.034021
								CHANNELS 3 Zrotation Yrotation Xrotation
								End Site
								{
									OFFSET 0.000000 0.000000 0.000000
								}
							}
						}
					}
					JOINT LeftShoulder_virtual
					{
						OFFSET 0.000000 0.000000 0.000000
						CHANNELS 3 Zrotation Yrotation Xrotation
						JOINT LeftShoulder
						{
							OFFSET 6.197824 13.665230 -4.064723
							CHANNELS 3 Zrotation Yrotation Xrotation
							JOINT LeftArm
							{
								OFFSET 7.778132 -0.187073 -1.709282
								CHANNELS 3 Zrotation Yrotation Xrotation
								JOINT LeftForeArm
								{
									OFFSET 21.954697 0.000000 -2.041093
									CHANNELS 3 Zrotation Yrotation Xrotation
									JOINT LeftHand
									{
										OFFSET 22.992908 0.000000 -0.870901
										CHANNELS 3 Zrotation Yrotation Xrotation
										End Site
										{
											OFFSET 0.000000 0.000000 0.000000
										}
									}
								}
							}
						}
					}
					JOINT RightShoulder_virtual
					{
						OFFSET 0.000000 0.000000 0.000000
						CHANNELS 3 Zrotation Yrotation Xrotation
						JOINT RightShoulder
						{
							OFFSET -6.197824 13.665230 -4.064723
							CHANNELS 3 Zrotation Yrotation Xrotation
							JOINT RightArm
							{
								OFFSET -7.778132 -0.187073 -1.709282
								CHANNELS 3 Zrotation Yrotation Xrotation
								JOINT RightForeArm
								{
									OFFSET -21.954697 0.000000 -2.041093
									CHANNELS 3 Zrotation Yrotation Xrotation
									JOINT RightHand
									{
										OFFSET -22.992908 0.000000 -0.870901
										CHANNELS 3 Zrotation Yrotation Xrotation
										End Site
										{
											OFFSET 0.000000 0.000000 0.000000
										}
									}
								}
							}
						}
					}
				}
			}
		}
	}
}
MOTION
Frames: 8
Frame Time: 0.033333
0.683934 81.978264 -14.784183 -179.763585 26.989183 -179.461649 -2.075075 0.507042 10.078111 5.394209 2.705560 -23.715829 7.784596 2.798164 32.084192 -9.671539 -10.124276 -10.120868 0.000000 0.000000 0.000000 1.896851 -0.004660 8.358438 -1.517449 0.813499 -32.104259 -2.531383 4.074143 33.881013 2.597521 2.166992 -1.018685 0.000000 0.000000 0.000000 3.936632 2.041484 -2.064649 2.498883 2.333566 -2.078452 -0.703399 -2.112100 16.835079 -0.113180 0.170628 0.052146 -0.754721 -1.384863 17.209599 5.616733 -10.527115 0.741415 0.000000 0.000000 0.000000 0.455899 -0.782300 13.443127 -4.094529 -8.359610 3.995005 -58.781038 -15.432486 5.817556 -0.716198 -36.762154 15.379062 0.000000 0.000000 0.000000 -3.241444 1.078120 13.029164 21.353123 5.224396 1.930473 50.348388 24.306201 11.053592 -10.624878 59.132622 -11.968021 0.000000 0.000000 0.000000 
1.629778 81.993660 -14.810991 -179.606504 25.003004 -179.385534 -1.867863 -0.270020 10.441190 6.272208 2.604884 -24.762844 7.344733 2.185680 32.940370 -10.378981 -10.333015 -8.956080 0.000000 0.000000 0.000000 2.133864 -0.713613 8.483920 -1.845988 1.842830 -31.868187 -1.740221 5.566020 33.560619 2.908390 2.972556 -0.428835 0.000000 0.000000 0.000000 4.569536 1.223353 -1.997947 2.825583 2.530617 -1.631011 -0.511482 -2.296494 16.741729 -0.069295 0.043265 0.098201 -0.633728 -1.392810 17.330925 6.391995 -10.902798 0.972400 0.000000 0.000000 0.000000 0.549341 -0.812605 13.549410 -3.842600 -8.549594 4.118687 -59.796551 -14.398199 6.145246 -0.755872 -36.035877 16.007648 0.000000 0.000000 0.000000 -3.269874 0.921432 13.051878 21.014414 4.976464 2.271735 48.733355 21.756012 12.462878 -8.674797 54.066405 -10.034984 0.000000 0.000000 0.000000 
2.448321 82.048973 -14.793997 -179.697305 24.085303 -179.475310 -1.720640 -1.111591 10.748129 6.858083 2.270330 -26.112085 6.994594 2.442134 34.213657 -10.392652 -9.733624 -6.606667 0.000000 0.000000 0.000000 2.455285 -1.762958 8.604988 -1.594918 1.512432 -31.447089 -1.663326 5.398867 33.201813 2.403906 2.795312 -1.125814 0.000000 0.000000 0.000000 5.038070 0.184545 -1.725692 3.045670 2.820097 -1.153761 -0.392509 -2.202074 16.628295 -0.083632 0.122883 0.037684 -0.410993 -1.526876 17.395877 7.152236 -11.325800 1.243502 0.000000 0.000000 0.000000 0.597256 -0.840638 13.470115 -3.656964 -8.402551 4.409947 -60.796743 -12.782336 6.418631 -0.881974 -36.116852 16.637501 0.000000 0.000000 0.000000 -3.030353 0.954072 13.001389 20.396041 4.445532 2.438165 48.099223 17.603503 13.720139 -7.410059 51.003881 -8.938184 0.000000 0.000000 0.000000 
3.193766 82.151047 -14.794869 -179.784335 23.616354 -179.586314 -1.528470 -1.909182 11.088762 7.416564 1.690568 -27.422055 6.782927 2.473895 35.599533 -10.405628 -9.089736 -4.207078 0.000000 0.000000 0.000000 2.740474 -2.592715 8.743333 -1.368542 1.295832 -30.970789 -1.672222 5.100877 32.614679 2.052493 2.518243 -1.608831 0.000000 0.000000 0.000000 5.393752 -0.460161 -1.345867 3.370703 2.697214 -0.716535 -0.324268 -2.164535 16.481434 -0.094650 0.133386 0.069432 -0.360952 -1.399012 17.297085 7.435325 -11.429595 1.411965 0.000000 0.000000 0.000000 0.724513 -0.753772 13.288731 -3.376750 -8.148546 4.717082 -61.742362 -10.697523 6.994614 -1.220271 -37.127389 17.353981 0.000000 0.000000 0.000000 -3.008661 1.020323 12.934386 19.633862 3.749781 2.732700 48.889845 12.473628 15.034204 -7.060547 49.819967 -8.890552 0.000000 0.000000 0.000000 
3.844859 82.317131 -14.838459 -179.816341 23.741628 -179.715842 -1.367262 -2.474772 11.374973 7.887566 0.961074 -28.489670 6.604129 2.295885 37.008933 -10.277286 -8.456750 -2.185372 0.000000 0.000000 0.000000 3.000753 -3.057826 8.915202 -1.196547 1.099843 -30.479446 -1.754151 4.735214 31.888944 1.852299 2.144806 -1.829593 0.000000 0.000000 0.000000 5.686344 -0.842261 -0.894776 3.677426 2.631078 -0.331574 -0.266344 -2.073570 16.299724 -0.072910 0.165934 -0.012372 -0.317028 -1.514148 17.298378 7.612217 -11.653827 1.610973 0.000000 0.000000 0.000000 0.694616 -0.739290 13.193823 -2.990194 -7.827737 4.928925 -62.451773 -8.576970 7.609369 -1.582454 -38.438116 17.998564 0.000000 0.000000 0.000000 -3.003072 1.081618 12.743015 18.805717 2.804496 2.920270 50.560387 6.411612 16.296398 -6.917566 50.228398 -9.083649 0.000000 0.000000 0.000000 
4.432229 82.523033 -14.915005 -179.875873 24.515668 -179.839673 -1.233925 -2.664541 11.469736 8.232699 0.170334 -29.264130 6.400872 2.007069 38.270585 -9.826959 -7.763689 -0.980381 0.000000 0.000000 0.000000 3.237200 -3.127927 9.050058 -1.080843 0.905691 -30.025402 -1.897607 4.339311 31.227017 1.786319 1.686770 -1.796020 0.000000 0.000000 0.000000 5.898415 -0.610111 -0.440021 3.938424 2.437800 -0.001244 -0.279741 -2.221044 16.131689 -0.024286 0.228237 0.030946 -0.401234 -1.566564 17.063518 7.393178 -11.692083 1.632441 0.000000 0.000000 0.000000 0.631958 -0.755609 12.946507 -2.600973 -7.617420 5.175705 -63.121958 -6.584814 8.475732 -1.796514 -39.679461 18.285414 0.000000 0.000000 0.000000 -3.154481 1.003583 12.530121 18.026235 1.963921 3.132046 52.802625 0.254874 17.103572 -7.002072 51.472804 -9.482924 0.000000 0.000000 0.000000 
4.933141 82.730537 -15.004359 -179.931799 25.590885 -179.904574 -1.280099 -2.238746 11.463807 8.320986 -0.531936 -29.666063 6.363528 1.939685 39.272594 -8.860607 -6.821436 -0.501185 0.000000 0.000000 0.000000 3.485284 -2.794223 9.171453 -0.960910 0.760334 -29.598809 -2.053426 3.956243 30.527957 1.886545 1.228281 -1.564352 0.000000 0.000000 0.000000 6.052513 -0.217993 -0.006480 4.099519 2.004440 0.277574 -0.413071 -2.253261 15.927468 -0.072821 0.223422 0.000471 -0.388731 -1.456022 16.863093 6.910800 -11.516391 1.477417 0.000000 0.000000 0.000000 0.649635 -0.708918 12.709845 -2.167771 -7.517573 5.361692 -63.839128 -4.926351 9.706012 -1.595511 -40.485854 17.969219 0.000000 0.000000 0.000000 -3.225837 1.019684 12.422212 17.371466 1.122992 3.461146 55.162489 -5.690148 17.455115 -7.484540 53.519477 -10.148454 0.000000 0.000000 0.000000 
5.330052 82.940628 -15.082272 -179.933083 26.967815 -179.956210 -1.351259 -1.296370 11.351175 8.246947 -0.988283 -29.895294 6.675238 2.387580 39.852638 -7.104476 -4.967275 -0.685691 0.000000 0.000000 0.000000 3.743350 -2.138949 9.407168 -0.836590 0.712800 -29.314059 -2.156276 3.697658 29.828382 2.162818 0.843728 -1.097021 0.000000 0.000000 0.000000 6.168283 0.491442 0.518850 4.182105 1.495853 0.483448 -0.547831 -2.311577 15.740924 -0.048327 0.146652 0.020282 -0.551409 -1.428520 16.560593 6.078857 -11.448100 1.245755 0.000000 0.000000 0.000000 0.477350 -0.747672 12.566140 -1.730265 -7.512961 5.405625 -64.447766 -3.670948 11.034674 -1.346185 -40.625610 17.522381 0.000000 0.000000 0.000000 -3.393265 1.048214 12.160136 17.046431 0.256104 3.936299 57.541386 -11.071235 17.319075 -8.311859 55.986101 -11.023451 0.000000 0.000000 0.000000 
